<svg width="600" height="468" fill="none" xmlns="http://www.w3.org/2000/svg"><g clip-path="url(#a)"><path d="M530 268c-49 60-123 62-159 124a362 362 0 0 1-168-238c-6-38-1-84 30-106 33-23 82-8 108 23 26 30 35 72 41 111 16-41 46-84 90-88 39-3 74 28 84 65 10 38-2 79-26 109Z" fill="#EC4E5B"/><path d="M575 148c-8-30-29-55-57-68a85 85 0 0 0-86 8 140 140 0 0 0-44 53 322 322 0 0 0-10-43c-9-26-24-52-48-68C283-2 220 4 194 59c-17 38-12 82 0 121 20 67 65 128 125 166 2 1 4-2 3-4-10-8-18-17-27-26a331 331 0 0 1-80-178c-3-30 0-68 27-86 27-16 64-3 85 18 28 29 38 71 48 109 2 8 13 8 15 0 5-12 11-22 18-33 16-23 38-46 68-47 32-1 61 26 68 57 7 27 1 57-13 81l-18 24c-27 28-63 43-97 64-12 7-23 15-33 26-19 20-31 48-30 76 0 4 4 5 6 2l7-13c7-11 15-23 25-32 13-12 27-23 42-32 22-13 47-24 68-38 18-11 34-26 47-42 27-35 39-82 27-124Z" fill="#CC333F"/><path d="M342 280c-15 62-69 90-74 148A297 297 0 0 1 59 312c-18-26-31-62-15-89 16-29 58-35 88-22 30 14 51 41 70 68-3-36 3-79 35-97 27-16 65-6 85 18 21 24 27 59 20 90Z" fill="#EC4E5B"/><path d="M332 175a88 88 0 0 0-66-30c-26 0-49 15-61 37a115 115 0 0 0-14 55 258 258 0 0 0-22-29c-16-16-37-29-60-33-46-7-91 20-90 70 1 34 21 65 43 89 39 43 94 72 151 78 2 0 3-3 1-3l-29-10A271 271 0 0 1 62 296c-12-22-23-50-10-73 14-22 46-25 69-17 31 11 53 39 74 63 4 5 13 1 12-5-1-11 0-21 1-31 3-23 12-47 33-59 24-12 55-2 71 18 15 18 21 42 19 64-1 9-2 17-5 24-9 31-31 55-48 82-6 10-12 20-16 31-6 22-5 47 5 68 2 2 5 1 6-1v-12c1-12 3-22 7-33 5-14 12-26 20-38 12-18 26-35 37-53 9-15 16-31 19-48 8-35 0-74-24-101Z" fill="#CC333F"/></g><defs><clipPath id="a"><path fill="#fff" d="M0 0h600v468H0z"/></clipPath></defs></svg>
