<svg width="13840" height="13705" viewBox="0 0 13840 13705" fill="none" xmlns="http://www.w3.org/2000/svg">
<path d="M3796.2 10094.8C2174.55 8535.64 2123.71 5947.7 3682.86 4326.05C5148.4 2801.78 7548.59 2656.3 9184.29 3978.34L8885.87 3123.42C8852.09 3014.81 8894.32 2884.82 9004.41 2855.98L9076 2822.53C9186.28 2793.5 9302.79 2857.88 9336.56 2966.09L9830.02 4398.14C9830.45 4400.12 9831.87 4401.09 9832.51 4403.27L9863.5 4501.77C9880.29 4556.18 9873.22 4611.44 9848.23 4656.52C9823.65 4701.98 9780.56 4737.85 9725.51 4752.07L9625.72 4778.31C9623.94 4778.95 9621.95 4778.59 9620.36 4779.02L8118.23 5139.91C8008.15 5169.14 7891.85 5104.95 7857.68 4996.35L7842.21 4918.24C7808.23 4809.84 7900.89 4703.73 8010.58 4674.91L8893.14 4465.91C8891.31 4464.15 8888.71 4463.21 8886.68 4461.65C7476.32 3273.11 5368.84 3385.37 4088.79 4716.73C2744.76 6114.63 2788.6 8345.65 4186.49 9689.67C5584.59 11033.9 7821.71 10996.3 9165.93 9598.21C9939.85 8793.27 10281 7698.29 10101.9 6594.63C10076.9 6441.07 10181.4 6296.72 10334.7 6271.61C10488.3 6246.7 10632.8 6350.94 10657.8 6504.5C10865.6 7784.93 10469.6 9054.73 9572.04 9988.29C8012.89 11609.9 5418.46 11654.5 3796.81 10095.4L3796.2 10094.8Z" fill="#D5D5D5"/>
<circle cx="5131.1" cy="5313.39" r="500" transform="rotate(-37.0683 5131.1 5313.39)" fill="#F5B2AC"/>
<circle cx="7912.26" cy="8994.99" r="500" transform="rotate(-37.0683 7912.26 8994.99)" fill="#F5B2AC"/>
<circle cx="6521.69" cy="7154.19" r="500" transform="rotate(-37.0683 6521.69 7154.19)" fill="#F5B2AC"/>
<circle cx="8767.15" cy="7509.5" r="500" transform="rotate(-37.0683 8767.15 7509.5)" fill="#F5B2AC"/>
<circle cx="4863.61" cy="8406.74" r="500" transform="rotate(-37.0683 4863.61 8406.74)" fill="#F5B2AC"/>
<circle cx="6249.3" cy="9411.55" r="500" transform="rotate(-37.0683 6249.3 9411.55)" fill="#F5B2AC"/>
<circle cx="4275.84" cy="6799.16" r="500" transform="rotate(-37.0683 4275.84 6799.16)" fill="#F5B2AC"/>
<circle cx="6827.82" cy="4941.51" r="500" transform="rotate(-37.0683 6827.82 4941.51)" fill="#F5B2AC"/>
</svg>
