<svg width="13874" height="13765" viewBox="0 0 13874 13765" fill="none" xmlns="http://www.w3.org/2000/svg">
<path d="M3902.41 10208.4C2239.01 8693.91 2117.9 6108.31 3632.44 4444.91C5056.04 2881.39 7451.39 2670.78 9122.39 3947.91L8800.86 3101.4C8764.15 2993.76 8802.83 2862.66 8912.1 2830.85L8982.75 2795.47C9092.21 2763.45 9210.41 2824.65 9247.11 2931.89L9779.28 4350.02C9779.77 4351.99 9781.21 4352.91 9781.91 4355.07L9815.57 4452.7C9833.83 4506.63 9828.26 4562.07 9804.51 4607.8C9781.17 4653.92 9739.08 4690.95 9684.43 4706.66L9585.39 4735.6C9583.63 4736.28 9581.62 4735.97 9580.05 4736.45L8088.28 5138C7979.03 5170.21 7861.03 5109.2 7823.92 5001.58L7806.33 4923.91C7769.43 4816.48 7859.16 4707.89 7968.03 4676.1L8844.59 4443.2C8842.72 4441.5 8840.09 4440.62 8838.02 4439.13C7395.9 3289.33 5292.25 3458.78 4048.83 4824.42C2743.26 6258.3 2847.67 8487.31 4281.56 9792.87C5715.65 11098.6 7950.92 11000.3 9256.67 9566.21C10008.4 8740.54 10319.7 7636.7 10110.7 6538.31C10081.6 6385.49 10182.1 6238.35 10334.7 6209.09C10487.5 6180.02 10634.9 6280.29 10663.9 6433.11C10906.5 7707.43 10545.1 8987.52 9673.23 9945.11C8158.69 11608.5 5566.43 11723.6 3903.03 10209L3902.41 10208.4Z" fill="#460000"/>
<circle cx="5106.95" cy="5392.55" r="500" transform="rotate(-38.6246 5106.95 5392.55)" fill="#B40A1B"/>
<circle cx="7987.08" cy="8997.25" r="500" transform="rotate(-38.6246 7987.08 8997.25)" fill="#B40A1B"/>
<circle cx="6547.02" cy="7194.9" r="500" transform="rotate(-38.6246 6547.02 7194.9)" fill="#B40A1B"/>
<circle cx="8801.31" cy="7489.09" r="500" transform="rotate(-38.6246 8801.31 7489.09)" fill="#B40A1B"/>
<circle cx="4923.58" cy="8492.02" r="500" transform="rotate(-38.6246 4923.58 8492.02)" fill="#B40A1B"/>
<circle cx="6336.05" cy="9458.83" r="500" transform="rotate(-38.6246 6336.05 9458.83)" fill="#B40A1B"/>
<circle cx="4292.36" cy="6901" r="500" transform="rotate(-38.6246 4292.36 6901)" fill="#B40A1B"/>
<circle cx="6792.95" cy="4974.73" r="500" transform="rotate(-38.6246 6792.95 4974.73)" fill="#B40A1B"/>
</svg>
